<svg width="25" height="25" viewBox="0 0 25 25" fill="none" xmlns="http://www.w3.org/2000/svg">
<path id="Vector" d="M22.9219 14.5402L24.9737 4.50313C25.1218 3.77844 24.6263 3.08834 23.9579 3.08834H6.91007L6.51224 0.926018C6.41311 0.387055 5.98655 0 5.49171 0H1.04167C0.466363 0 0 0.518503 0 1.15813V1.93021C0 2.56983 0.466363 3.08834 1.04167 3.08834H4.07478L7.12374 19.6609C6.39431 20.1273 5.90278 21.0018 5.90278 22.0044C5.90278 23.4968 6.99097 24.7067 8.33333 24.7067C9.67569 24.7067 10.7639 23.4968 10.7639 22.0044C10.7639 21.248 10.4841 20.5647 10.0337 20.0742H19.1329C18.6826 20.5647 18.4028 21.248 18.4028 22.0044C18.4028 23.4968 19.491 24.7067 20.8333 24.7067C22.1757 24.7067 23.2639 23.4968 23.2639 22.0044C23.2639 20.9345 22.7045 20.0099 21.8933 19.5721L22.1327 18.4006C22.2809 17.676 21.7854 16.9859 21.117 16.9859H9.46688L9.18281 15.4417H21.9061C22.3925 15.4417 22.8141 15.0675 22.9219 14.5402Z" fill="black"/>
</svg>
